<?xml version="1.0" encoding="utf-8"?>
<!-- Generator: Adobe Illustrator 16.0.0, SVG Export Plug-In . SVG Version: 6.00 Build 0)  -->
<!DOCTYPE svg PUBLIC "-//W3C//DTD SVG 1.1 Tiny//EN" "http://www.w3.org/Graphics/SVG/1.1/DTD/svg11-tiny.dtd">
<svg version="1.1" baseProfile="tiny" id="Layer_1" xmlns="http://www.w3.org/2000/svg" xmlns:xlink="http://www.w3.org/1999/xlink"
	 x="0px" y="0px" width="40px" height="40px" viewBox="0 0 40 40" xml:space="preserve">
<g>
	<circle fill="#CDF1D8" cx="20" cy="20" r="20"/>
	<g>
		<path fill-rule="evenodd" fill="#44CE6F" d="M11.226,28.618c0.072-0.347,0.264-0.594,0.604-0.715
			c0.111-0.039,0.227-0.052,0.345-0.052c1.23,0,2.461,0,3.691,0c3.982,0,7.964,0.001,11.945,0c0.314,0,0.584,0.1,0.773,0.355
			c0.223,0.3,0.254,0.631,0.08,0.962c-0.16,0.306-0.427,0.468-0.774,0.468c-5.249,0.002-10.496,0-15.744,0.004
			c-0.409,0.001-0.81-0.263-0.904-0.694c-0.004-0.019-0.01-0.036-0.016-0.056C11.226,28.801,11.226,28.71,11.226,28.618z"/>
		<path fill-rule="evenodd" fill="#44CE6F" d="M24.548,20.639c0-1.874,0.003-3.748-0.004-5.622c-0.001-0.241,0.173-0.424,0.423-0.42
			c0.665,0.012,1.331,0.004,1.997,0.004c0.258,0,0.402,0.145,0.402,0.405c0,1.319,0,2.637,0,3.956c0,2.429,0,4.858,0,7.288
			c0,0.302-0.139,0.44-0.441,0.44c-0.652,0.001-1.306-0.005-1.958,0.003c-0.235,0.003-0.425-0.169-0.423-0.424
			C24.552,24.394,24.548,22.516,24.548,20.639z"/>
		<path fill-rule="evenodd" fill="#44CE6F" d="M20.573,22.222c0-1.348,0.004-2.695-0.003-4.042
			c-0.002-0.263,0.176-0.417,0.418-0.417c0.662,0.002,1.325,0.002,1.986,0c0.239-0.001,0.421,0.161,0.421,0.417
			c-0.006,2.699-0.003,5.397-0.004,8.095c0,0.269-0.146,0.417-0.415,0.417c-0.669,0.001-1.338,0.001-2.007,0
			c-0.245,0-0.396-0.158-0.396-0.406C20.573,24.93,20.573,23.576,20.573,22.222z"/>
		<path fill-rule="evenodd" fill="#44CE6F" d="M22.405,12.049c0.722,0,1.442,0,2.164,0c0.028,0,0.059-0.002,0.087,0.001
			c0.053,0.005,0.105,0.018,0.128,0.074c0.024,0.059,0.008,0.111-0.031,0.162c-0.213,0.274-0.424,0.55-0.635,0.826
			c-0.691,0.901-1.383,1.802-2.073,2.704c-0.035,0.046-0.075,0.085-0.139,0.072c-0.068-0.015-0.088-0.071-0.092-0.132
			c-0.019-0.246-0.036-0.492-0.053-0.737c-0.015-0.21-0.027-0.42-0.04-0.63c-0.005-0.088-0.049-0.069-0.103-0.042
			c-0.576,0.285-1.152,0.568-1.729,0.853c-0.457,0.225-0.913,0.451-1.371,0.674c-0.064,0.032-0.109,0.074-0.146,0.136
			c-0.425,0.721-0.854,1.44-1.28,2.16c-0.149,0.251-0.298,0.502-0.446,0.753c-0.174,0.292-0.473,0.395-0.787,0.265
			c-1.022-0.421-2.044-0.844-3.066-1.266c-0.297-0.123-0.595-0.242-0.891-0.366c-0.241-0.101-0.381-0.283-0.387-0.546
			s0.124-0.451,0.362-0.561c0.142-0.066,0.288-0.076,0.435-0.016c0.564,0.231,1.127,0.464,1.69,0.697
			c0.588,0.242,1.177,0.482,1.763,0.728c0.081,0.034,0.115,0.014,0.158-0.06c0.354-0.604,0.714-1.206,1.072-1.808
			c0.161-0.271,0.321-0.541,0.479-0.813c0.071-0.123,0.171-0.209,0.298-0.271c1.104-0.542,2.206-1.085,3.311-1.628
			c0.098-0.048,0.099-0.049,0.017-0.122c-0.319-0.282-0.638-0.563-0.957-0.844c-0.01-0.008-0.02-0.018-0.028-0.026
			c-0.047-0.045-0.102-0.089-0.075-0.165c0.028-0.079,0.099-0.072,0.164-0.072C20.938,12.048,21.672,12.048,22.405,12.049
			C22.405,12.048,22.405,12.049,22.405,12.049z"/>
		<path fill-rule="evenodd" fill="#44CE6F" d="M15.441,23.669c0,0.873-0.005,1.747,0.004,2.62c0.002,0.204-0.153,0.405-0.401,0.403
			c-0.676-0.005-1.351-0.001-2.026-0.002c-0.239,0-0.394-0.158-0.394-0.399c-0.001-1.753-0.001-3.507,0-5.26
			c0-0.241,0.148-0.389,0.387-0.39c0.682,0,1.363-0.001,2.046,0.001c0.246,0,0.385,0.14,0.385,0.387
			C15.441,21.909,15.441,22.789,15.441,23.669z"/>
		<path fill-rule="evenodd" fill="#44CE6F" d="M19.416,24.457c0,0.611,0.001,1.221,0,1.831c0,0.247-0.152,0.402-0.399,0.402
			c-0.672,0.001-1.344,0.001-2.017,0c-0.247,0-0.401-0.155-0.401-0.401c-0.001-1.228-0.001-2.454,0-3.682
			c0-0.24,0.149-0.387,0.391-0.387c0.672,0,1.344,0.004,2.016-0.002c0.231-0.002,0.419,0.146,0.415,0.418
			C19.41,23.243,19.416,23.851,19.416,24.457z"/>
	</g>
</g>
</svg>
