<?xml version="1.0" encoding="utf-8"?>
<!-- Generator: Adobe Illustrator 16.0.0, SVG Export Plug-In . SVG Version: 6.00 Build 0)  -->
<!DOCTYPE svg PUBLIC "-//W3C//DTD SVG 1.1 Tiny//EN" "http://www.w3.org/Graphics/SVG/1.1/DTD/svg11-tiny.dtd">
<svg version="1.1" baseProfile="tiny" id="Layer_1" xmlns="http://www.w3.org/2000/svg" xmlns:xlink="http://www.w3.org/1999/xlink"
	 x="0px" y="0px" width="50px" height="50px" viewBox="0 0 50 50" xml:space="preserve">
<circle fill="#CDF1D8" cx="25" cy="25" r="25"/>
<g>
	<g>
		<g>
			<path fill="#44CE6F" d="M39.21,33.176H10.79c-0.147,0-0.268-0.119-0.268-0.268V15.841c0-0.897,0.73-1.628,1.627-1.628h25.701
				c0.896,0,1.627,0.73,1.627,1.628v17.067C39.478,33.057,39.357,33.176,39.21,33.176z M11.056,32.643h27.889V15.841
				c0-0.604-0.491-1.095-1.094-1.095H12.149c-0.603,0-1.094,0.491-1.094,1.095V32.643z"/>
		</g>
		<g>
			<path fill="#44CE6F" d="M37.462,31.428H12.54c-0.146,0-0.267-0.121-0.267-0.268V16.228c0-0.147,0.12-0.267,0.267-0.267h24.922
				c0.146,0,0.266,0.119,0.266,0.267V31.16C37.728,31.307,37.608,31.428,37.462,31.428z M12.807,30.895h24.388v-14.4H12.807V30.895z
				"/>
		</g>
		<g>
			<path fill="#44CE6F" d="M39.213,35.787H10.79c-1.094,0-1.982-0.707-1.982-1.572v-1.307c0-0.146,0.118-0.266,0.266-0.266h31.854
				c0.147,0,0.266,0.119,0.266,0.266v1.307C41.192,35.08,40.306,35.787,39.213,35.787z M9.339,33.176v1.039
				c0,0.563,0.665,1.039,1.451,1.039h28.423c0.784,0,1.448-0.477,1.448-1.039v-1.039H9.339z"/>
		</g>
		<g>
			<path fill="#44CE6F" d="M25,35.051c-0.462,0-0.836-0.375-0.836-0.836s0.374-0.836,0.836-0.836s0.837,0.375,0.837,0.836
				S25.462,35.051,25,35.051z M25,33.91c-0.168,0-0.303,0.137-0.303,0.305S24.832,34.52,25,34.52s0.305-0.137,0.305-0.305
				S25.168,33.91,25,33.91z"/>
		</g>
	</g>
	<path fill="#44CE6F" d="M32.52,25.896l-0.563-2.714c-0.008-0.035-0.028-0.065-0.059-0.085c-0.03-0.021-0.065-0.026-0.102-0.02
		l-3.607,0.753c0.071-0.014,0.142,0.031,0.157,0.104l0.095,0.455c0.016,0.073-0.031,0.144-0.104,0.159
		c-0.059,0.013-0.116-0.017-0.145-0.067c-0.006-0.011-0.011-0.022-0.014-0.037l-0.097-0.455c-0.015-0.071,0.031-0.142,0.103-0.158
		l-2.1,0.438c0.07-0.016,0.141,0.03,0.156,0.104l0.097,0.455c0.014,0.072-0.033,0.144-0.104,0.159
		c-0.059,0.013-0.118-0.016-0.146-0.066c-0.006-0.012-0.009-0.024-0.012-0.038l-0.097-0.455c-0.016-0.071,0.031-0.143,0.103-0.158
		l-2.101,0.438c0.071-0.013,0.142,0.033,0.157,0.105l0.094,0.456c0.014,0.072-0.031,0.144-0.104,0.158
		c-0.06,0.013-0.118-0.017-0.146-0.067c-0.006-0.012-0.011-0.023-0.013-0.038l-0.093-0.455c-0.016-0.072,0.031-0.142,0.101-0.157
		l-1.355,0.282c0.071-0.014,0.141,0.032,0.156,0.104l0.191,0.911c0.016,0.072-0.031,0.143-0.104,0.158
		c-0.059,0.012-0.118-0.016-0.145-0.066c-0.006-0.012-0.011-0.023-0.014-0.037l-0.191-0.911c-0.015-0.072,0.031-0.142,0.102-0.158
		l-0.736,0.154c0.071-0.013,0.14,0.031,0.153,0.104l0.095,0.456c0.016,0.073-0.03,0.144-0.104,0.159
		c-0.059,0.012-0.117-0.016-0.144-0.066c-0.007-0.012-0.011-0.024-0.015-0.038l-0.095-0.456c-0.014-0.071,0.03-0.141,0.102-0.158
		l-1.354,0.282c0.07-0.014,0.139,0.032,0.156,0.104l0.191,0.91c0.016,0.074-0.031,0.145-0.104,0.16
		c-0.059,0.012-0.118-0.018-0.145-0.066c-0.006-0.012-0.013-0.025-0.016-0.039l-0.19-0.909c-0.015-0.072,0.031-0.142,0.102-0.158
		l-2.927,0.61c-0.034,0.008-0.065,0.027-0.085,0.059c-0.019,0.029-0.026,0.064-0.019,0.1l0.565,2.713
		c0.003,0.014,0.008,0.025,0.014,0.037c0.028,0.051,0.086,0.078,0.145,0.066l14.213-2.963C32.488,26.039,32.535,25.969,32.52,25.896
		z M18.935,28.408c-0.213,0.045-0.434-0.059-0.538-0.248c-0.022-0.041-0.04-0.088-0.05-0.137c-0.054-0.273,0.115-0.529,0.386-0.588
		c0.263-0.055,0.531,0.121,0.586,0.385C19.374,28.088,19.203,28.352,18.935,28.408z M19.919,26.305
		c-0.057,0.014-0.116-0.016-0.145-0.066c-0.004-0.012-0.011-0.023-0.014-0.037l-0.095-0.455c-0.016-0.073,0.031-0.144,0.104-0.158
		c0.072-0.017,0.143,0.03,0.158,0.103l0.097,0.456C20.04,26.219,19.994,26.289,19.919,26.305z M24.969,25.728
		c-0.059,0.013-0.118-0.017-0.146-0.067c-0.007-0.011-0.012-0.023-0.015-0.037l-0.19-0.909c-0.016-0.073,0.03-0.145,0.104-0.16
		c0.073-0.015,0.143,0.031,0.16,0.104l0.189,0.911C25.089,25.641,25.04,25.712,24.969,25.728z M27.072,25.288
		c-0.059,0.013-0.118-0.016-0.146-0.065c-0.005-0.012-0.01-0.024-0.013-0.038l-0.191-0.91c-0.016-0.072,0.031-0.145,0.104-0.159
		c0.071-0.016,0.143,0.03,0.158,0.104l0.191,0.909C27.192,25.202,27.146,25.273,27.072,25.288z M29.177,24.85
		c-0.06,0.013-0.119-0.017-0.145-0.066c-0.007-0.012-0.012-0.024-0.015-0.038l-0.189-0.909c-0.017-0.072,0.031-0.144,0.103-0.159
		c0.073-0.015,0.145,0.031,0.158,0.104l0.191,0.91C29.296,24.763,29.249,24.834,29.177,24.85z M30.44,24.112
		c-0.059,0.012-0.117-0.017-0.146-0.067c-0.007-0.011-0.011-0.023-0.015-0.037l-0.093-0.456c-0.016-0.072,0.031-0.144,0.104-0.159
		c0.072-0.015,0.143,0.031,0.158,0.104l0.095,0.456C30.559,24.026,30.513,24.097,30.44,24.112z M31.281,24.411
		c-0.061,0.012-0.118-0.017-0.146-0.067c-0.007-0.011-0.012-0.024-0.015-0.037l-0.19-0.91c-0.015-0.072,0.031-0.144,0.104-0.159
		c0.073-0.016,0.145,0.03,0.158,0.104l0.191,0.909C31.399,24.323,31.354,24.396,31.281,24.411z"/>
	<g>
		<polygon fill="#44CE6F" points="20.118,21.056 20.724,23.991 29.929,22.086 29.294,19.028 		"/>
		<g>
			<path fill="#44CE6F" d="M18.24,23.104c-0.005-0.01-0.01-0.021-0.011-0.031c-0.01-0.036,0-0.074,0.021-0.104l1.625-2.084
				c0.018-0.023,0.042-0.04,0.071-0.046L30.273,18.7c0.424-0.089,0.866,0.115,1.075,0.497c0.048,0.086,0.082,0.178,0.102,0.275
				l0.305,1.471c0.109,0.539-0.237,1.066-0.773,1.177l-10.327,2.139c-0.026,0.005-0.055,0.002-0.079-0.01l-2.279-1.094
				C18.272,23.144,18.252,23.126,18.24,23.104z M20.042,21.071l-1.502,1.928l2.105,1.009l10.286-2.13
				c0.402-0.083,0.663-0.479,0.581-0.885l-0.305-1.471c-0.016-0.072-0.04-0.142-0.076-0.206c-0.156-0.287-0.489-0.44-0.809-0.374
				l-0.706,0.146L20.042,21.071z"/>
		</g>
		<g>
			<path fill="#44CE6F" d="M20.192,22.609c-0.006-0.011-0.009-0.021-0.012-0.034c-0.016-0.067,0.027-0.132,0.095-0.146l9.444-1.957
				c0.067-0.015,0.133,0.028,0.146,0.095c0.014,0.067-0.029,0.133-0.097,0.146l-9.443,1.958
				C20.272,22.682,20.218,22.655,20.192,22.609z"/>
		</g>
		<g>
			<path fill="#44CE6F" d="M29.966,22.24c-0.005-0.01-0.01-0.021-0.013-0.034l-0.659-3.178c-0.012-0.065,0.029-0.132,0.097-0.146
				c0.068-0.014,0.132,0.028,0.146,0.097l0.659,3.176c0.015,0.067-0.029,0.133-0.097,0.146
				C30.045,22.313,29.992,22.287,29.966,22.24z"/>
		</g>
		<g>
			<path fill="#44CE6F" d="M20.521,24.197c-0.004-0.011-0.01-0.022-0.012-0.035l-0.658-3.178c-0.012-0.067,0.03-0.133,0.097-0.146
				c0.067-0.013,0.132,0.029,0.146,0.097l0.655,3.178c0.016,0.066-0.027,0.132-0.095,0.146C20.6,24.27,20.547,24.243,20.521,24.197z
				"/>
		</g>
	</g>
</g>
</svg>
