<?xml version="1.0" encoding="utf-8"?>
<!-- Generator: Adobe Illustrator 16.0.0, SVG Export Plug-In . SVG Version: 6.00 Build 0)  -->
<!DOCTYPE svg PUBLIC "-//W3C//DTD SVG 1.1 Tiny//EN" "http://www.w3.org/Graphics/SVG/1.1/DTD/svg11-tiny.dtd">
<svg version="1.1" baseProfile="tiny" id="Layer_1" xmlns="http://www.w3.org/2000/svg" xmlns:xlink="http://www.w3.org/1999/xlink"
	 x="0px" y="0px" width="50px" height="50px" viewBox="0 0 50 50" xml:space="preserve">
<circle fill="#F9D2C4" cx="25.103" cy="25" r="25"/>
<g>
	<path fill="#EB6B3D" d="M36.111,32.639c-1.144-1.899-3.728-1.324-4.413-2.891c-0.107-0.74,1.967-1.598,1.882-5.445
		c-0.044-1.958-1.634-3.451-3.364-3.387c-1.729-0.064-3.319,1.429-3.363,3.387c-0.085,3.848,1.989,4.705,1.882,5.445
		c-0.685,1.566-3.27,0.991-4.412,2.891c-0.611,0.695-0.485,2.651-0.289,3.686h12.366C36.597,35.29,36.722,33.334,36.111,32.639z"/>
	<path fill="#EB6B3D" d="M25.743,30.783c-1.131-0.413-1.739-0.631-1.928-1.387c-0.081-0.56,1.486-1.207,1.422-4.115
		c-0.033-1.479-1.234-2.608-2.542-2.56c-1.308-0.048-2.509,1.08-2.542,2.56c-0.064,2.908,1.503,3.556,1.422,4.115
		c-0.518,1.186-2.471,0.749-3.334,2.185c-0.463,0.526-0.367,2.004-0.219,2.786h5.318C23.229,33.645,23.178,31.544,25.743,30.783z"/>
	<path fill="#EB6B3D" d="M27.679,17.68c0.026-2.756-2.383-4.004-5.388-4.004s-5.617,1.353-5.496,4.004
		c0.136,2.964,2.491,4.16,5.496,4.16c0.763,0,1.483-0.081,2.136-0.249c0.334,0.187,0.973,0.466,2,0.631c0,0-0.579-0.409-1.102-0.938
		C26.742,20.662,27.662,19.493,27.679,17.68z M23.16,18.077l0.575,1.977l-1.494-1.228l-1.501,1.228l0.573-1.977l-1.5-1.214h1.853
		l0.575-1.976l0.562,1.976h1.854L23.16,18.077z"/>
</g>
</svg>
