<?xml version="1.0" encoding="utf-8"?>
<!-- Generator: Adobe Illustrator 16.0.0, SVG Export Plug-In . SVG Version: 6.00 Build 0)  -->
<!DOCTYPE svg PUBLIC "-//W3C//DTD SVG 1.1 Tiny//EN" "http://www.w3.org/Graphics/SVG/1.1/DTD/svg11-tiny.dtd">
<svg version="1.1" baseProfile="tiny" id="Layer_1" xmlns="http://www.w3.org/2000/svg" xmlns:xlink="http://www.w3.org/1999/xlink"
	 x="0px" y="0px" width="40px" height="40px" viewBox="0 0 40 40" xml:space="preserve">
<circle fill="#EDC3FC" cx="20" cy="20" r="20"/>
<g>
	<path fill-rule="evenodd" fill="#C679E3" d="M24.825,15.108c-1.008-0.962-2.092-1.541-3.335-1.819
		c-0.739-0.166-1.485-0.263-2.237-0.095c-0.326,0.072-0.577-0.014-0.802-0.25c-0.205-0.216-0.423-0.421-0.644-0.621
		c-0.272-0.247-0.175-0.363,0.132-0.436c2.504-0.588,4.814-0.159,6.934,1.301c0.179,0.123,0.366,0.409,0.553,0.301
		c0.168-0.097,0.09-0.424,0.064-0.644c-0.053-0.449,0.145-0.553,0.56-0.54c0.994,0.032,0.936-0.089,0.936,0.96
		c0,0.951-0.008,1.903,0.003,2.854c0.004,0.344-0.13,0.481-0.479,0.478c-1.122-0.012-2.243-0.009-3.366-0.002
		c-0.299,0.002-0.441-0.102-0.438-0.42c0.011-1.261-0.108-1.047,1.019-1.066C24.05,15.104,24.376,15.108,24.825,15.108z"/>
	<path fill-rule="evenodd" fill="#C679E3" d="M24.882,24.832c1.075-1.141,1.689-2.371,1.908-3.801
		c0.091-0.591,0.132-1.185,0.048-1.78c-0.024-0.172,0.022-0.305,0.133-0.427c0.247-0.274,0.5-0.544,0.738-0.825
		c0.198-0.233,0.317-0.194,0.388,0.088c0.215,0.859,0.332,1.727,0.241,2.614c-0.175,1.694-0.759,3.223-1.832,4.555
		c-0.043,0.053-0.073,0.115-0.151,0.241c0.35,0,0.643,0.014,0.933-0.004c0.267-0.016,0.396,0.064,0.393,0.353
		c-0.018,1.303,0.13,1.129-1.091,1.139c-0.88,0.008-1.761-0.01-2.64,0.007c-0.39,0.008-0.566-0.108-0.559-0.531
		c0.021-1.093,0.016-2.186,0.003-3.278c-0.005-0.345,0.115-0.483,0.47-0.478c1.182,0.017,1.004-0.101,1.019,0.981
		C24.887,24.026,24.882,24.365,24.882,24.832z"/>
	<path fill-rule="evenodd" fill="#C679E3" d="M13.636,14.489c-0.349,0-0.67-0.01-0.99,0.003c-0.24,0.009-0.335-0.094-0.333-0.325
		c0.008-1.339-0.128-1.152,1.064-1.162c0.895-0.007,1.789,0.008,2.684-0.006c0.368-0.006,0.544,0.104,0.537,0.507
		c-0.019,1.107-0.013,2.214-0.003,3.322c0.003,0.323-0.112,0.46-0.447,0.457c-1.218-0.016-1.023,0.109-1.04-1.001
		c-0.005-0.336,0-0.673,0-1.129c-0.563,0.602-0.973,1.169-1.28,1.801c-0.585,1.201-0.812,2.475-0.682,3.805
		c0.021,0.205-0.012,0.356-0.157,0.497c-0.246,0.236-0.488,0.476-0.725,0.721c-0.227,0.234-0.335,0.245-0.417-0.123
		c-0.557-2.496-0.023-4.753,1.443-6.817C13.402,14.881,13.56,14.751,13.636,14.489z"/>
	<path fill-rule="evenodd" fill="#C679E3" d="M15.149,24.88c1.161,1.071,2.389,1.699,3.821,1.91c0.225,0.033,0.459,0.11,0.674,0.074
		c0.873-0.147,1.498,0.264,2.058,0.848c0.086,0.09,0.242,0.152,0.21,0.295c-0.037,0.165-0.217,0.159-0.35,0.188
		c-1.651,0.36-3.245,0.141-4.788-0.504c-0.708-0.297-1.369-0.686-1.969-1.171c-0.072-0.059-0.143-0.17-0.253-0.114
		c-0.105,0.054-0.054,0.178-0.066,0.272c-0.002,0.013,0,0.028-0.001,0.042c-0.022,1.004-0.154,1.107-1.168,0.953
		c-0.208-0.032-0.307-0.135-0.307-0.333c-0.003-1.206-0.002-2.412,0.001-3.618c0.001-0.203,0.111-0.317,0.318-0.317
		c1.205-0.002,2.412-0.002,3.618-0.003c0.027,0,0.061-0.003,0.084,0.01c0.495,0.275,0.162,0.736,0.239,1.105
		c0.049,0.233-0.084,0.368-0.344,0.365C16.379,24.876,15.829,24.88,15.149,24.88z"/>
</g>
</svg>
