<?xml version="1.0" encoding="utf-8"?>
<!-- Generator: Adobe Illustrator 16.0.0, SVG Export Plug-In . SVG Version: 6.00 Build 0)  -->
<!DOCTYPE svg PUBLIC "-//W3C//DTD SVG 1.1 Tiny//EN" "http://www.w3.org/Graphics/SVG/1.1/DTD/svg11-tiny.dtd">
<svg version="1.1" baseProfile="tiny" id="Layer_1" xmlns="http://www.w3.org/2000/svg" xmlns:xlink="http://www.w3.org/1999/xlink"
	 x="0px" y="0px" width="40px" height="40px" viewBox="0 0 40 40" xml:space="preserve">
<g>
	<circle fill="#FDDCEF" cx="20" cy="20" r="20"/>
	<g>
		<path fill-rule="evenodd" fill="#F899D2" d="M21.848,27.17c0.825,0.057,1.303-0.34,1.62-0.975c0.118-0.237,0.155-0.5,0.121-0.764
			c-0.023-0.184,0.024-0.301,0.19-0.413c1.135-0.771,2.261-1.558,3.394-2.335c0.515-0.354,1.027-0.711,1.561-1.035
			c0.301-0.183,0.643-0.132,0.951,0.019c0.402,0.196,0.584,0.533,0.594,0.984c0.009,0.409-0.147,0.718-0.479,0.948
			c-0.778,0.542-1.557,1.087-2.336,1.628c-0.995,0.69-1.992,1.376-2.987,2.065c-0.798,0.553-1.593,1.11-2.409,1.635
			c-0.185,0.119-0.369,0.233-0.565,0.33c-0.201,0.099-0.402,0.107-0.61,0.04c-0.688-0.223-1.366-0.473-2.045-0.722
			c-0.979-0.358-1.96-0.713-2.942-1.068c-0.365-0.133-0.733-0.26-1.1-0.391c-0.447-0.16-0.879-0.115-1.286,0.115
			c-0.471,0.266-0.898,0.595-1.346,0.896c-0.295,0.197-0.313,0.186-0.521-0.108c-0.555-0.781-1.107-1.563-1.636-2.363
			c-0.09-0.136-0.172-0.275-0.259-0.412c-0.062-0.096-0.049-0.166,0.048-0.239c0.601-0.454,1.222-0.88,1.839-1.311
			c0.813-0.569,1.622-1.145,2.456-1.682c0.646-0.416,1.359-0.542,2.115-0.431c0.474,0.069,0.888,0.303,1.311,0.508
			c0.834,0.406,1.666,0.816,2.492,1.238c0.847,0.432,1.697,0.852,2.529,1.311c0.407,0.225,0.539,0.586,0.523,1.033
			c-0.026,0.693-0.768,1.221-1.519,0.922c-0.521-0.207-1.012-0.48-1.515-0.729c-0.775-0.382-1.541-0.783-2.329-1.139
			c-0.054-0.024-0.109-0.047-0.167-0.064c-0.115-0.036-0.211,0.006-0.265,0.115s-0.033,0.193,0.073,0.264
			c0.31,0.2,0.64,0.361,0.969,0.527c1.034,0.522,2.07,1.041,3.104,1.563C21.585,27.213,21.753,27.154,21.848,27.17z"/>
		<path fill-rule="evenodd" fill="#F899D2" d="M22.611,12.608c2.328,0,4.655,0,6.983,0c0.276,0,0.438,0.164,0.438,0.443
			c0,2.195,0,4.39,0,6.585c0,0.268-0.167,0.432-0.438,0.432c-4.188-0.001-8.378,0-12.567-0.01c-0.521-0.001-1.043,0.01-1.564-0.037
			c-0.163-0.014-0.223-0.072-0.249-0.237c-0.023-0.144-0.027-0.29-0.028-0.435c-0.001-0.089-0.004-0.18-0.004-0.269
			c-0.006-2.011-0.012-4.022-0.017-6.033c0-0.293,0.145-0.439,0.436-0.439C17.938,12.608,20.274,12.608,22.611,12.608z
			 M22.586,13.385c-1.687,0-3.372,0-5.059,0c-0.043,0-0.086,0-0.128,0.001c-0.063,0-0.087,0.031-0.096,0.094
			c-0.098,0.693-0.558,1.165-1.241,1.263c-0.115,0.017-0.149,0.057-0.149,0.169c0.004,0.95,0.004,1.9,0,2.851
			c0,0.11,0.03,0.153,0.147,0.171c0.668,0.103,1.097,0.519,1.232,1.181c0.042,0.202,0.042,0.202,0.245,0.202
			c3.372,0,6.745,0,10.117,0c0.025,0,0.052-0.002,0.077,0c0.095,0.009,0.138-0.026,0.146-0.128c0.014-0.18,0.066-0.354,0.157-0.511
			c0.239-0.412,0.588-0.673,1.067-0.739c0.11-0.015,0.164-0.05,0.163-0.175c-0.004-0.95-0.004-1.9-0.001-2.85
			c0.001-0.111-0.034-0.154-0.15-0.17c-0.637-0.089-1.127-0.567-1.222-1.194c-0.021-0.139-0.08-0.168-0.21-0.168
			C25.984,13.386,24.285,13.385,22.586,13.385z"/>
		<path fill-rule="evenodd" fill="#F899D2" d="M24.56,16.372c0.027,0.656-0.149,1.272-0.56,1.817c-0.24,0.318-0.54,0.56-0.919,0.691
			c-0.623,0.215-1.158,0.021-1.621-0.395c-0.511-0.459-0.75-1.062-0.826-1.733c-0.071-0.619-0.004-1.221,0.269-1.789
			c0.205-0.429,0.491-0.793,0.909-1.035c0.584-0.337,1.162-0.293,1.701,0.09c0.646,0.459,0.963,1.114,1.029,1.896
			C24.555,16.06,24.571,16.204,24.56,16.372z"/>
		<path fill-rule="evenodd" fill="#F899D2" d="M27.55,16.356c-0.004,0.468-0.399,0.842-0.888,0.838
			c-0.454-0.004-0.848-0.41-0.839-0.865c0.008-0.472,0.401-0.864,0.862-0.861C27.153,15.472,27.554,15.882,27.55,16.356z"/>
		<path fill-rule="evenodd" fill="#F899D2" d="M18.486,15.485c0.501,0.002,0.871,0.364,0.87,0.85
			c-0.002,0.473-0.396,0.86-0.873,0.859c-0.463,0-0.863-0.388-0.851-0.851C17.646,15.853,18.019,15.463,18.486,15.485z"/>
	</g>
</g>
</svg>
