<?xml version="1.0" encoding="utf-8"?>
<!-- Generator: Adobe Illustrator 16.0.0, SVG Export Plug-In . SVG Version: 6.00 Build 0)  -->
<!DOCTYPE svg PUBLIC "-//W3C//DTD SVG 1.1 Tiny//EN" "http://www.w3.org/Graphics/SVG/1.1/DTD/svg11-tiny.dtd">
<svg version="1.1" baseProfile="tiny" id="Layer_1" xmlns="http://www.w3.org/2000/svg" xmlns:xlink="http://www.w3.org/1999/xlink"
	 x="0px" y="0px" width="50px" height="50px" viewBox="0 0 50 50" xml:space="preserve">
<circle fill="#FDDCEF" cx="25" cy="25" r="25"/>
<g>
	<g>
		<rect x="14.475" y="13.011" fill="#F899D2" width="0.605" height="17.79"/>
		<rect x="13.435" y="15.192" fill="#F899D2" width="2.686" height="13.427"/>
	</g>
	<g>
		<rect x="18.805" y="16.479" fill="#F899D2" width="0.604" height="9.343"/>
		<rect x="17.764" y="18.662" fill="#F899D2" width="2.686" height="4.979"/>
	</g>
	<g>
		<rect x="23.136" y="14.778" fill="#F899D2" width="0.604" height="7.676"/>
		<rect x="22.095" y="16.96" fill="#F899D2" width="2.686" height="3.312"/>
	</g>
	<g>
		<circle fill="#F899D2" cx="11.527" cy="27.529" r="0.337"/>
		<circle fill="#F899D2" cx="12.874" cy="27.529" r="0.336"/>
		<circle fill="#F899D2" cx="14.222" cy="27.529" r="0.337"/>
		<circle fill="#F899D2" cx="15.569" cy="27.529" r="0.336"/>
		<circle fill="#F899D2" cx="16.917" cy="27.529" r="0.337"/>
		<circle fill="#F899D2" cx="18.263" cy="27.529" r="0.337"/>
		<circle fill="#F899D2" cx="19.611" cy="27.529" r="0.337"/>
		<circle fill="#F899D2" cx="20.958" cy="27.529" r="0.337"/>
		<circle fill="#F899D2" cx="22.306" cy="27.529" r="0.337"/>
		<circle fill="#F899D2" cx="23.653" cy="27.529" r="0.336"/>
		<circle fill="#F899D2" cx="24.999" cy="27.529" r="0.336"/>
		<circle fill="#F899D2" cx="26.347" cy="27.529" r="0.337"/>
		<circle fill="#F899D2" cx="27.694" cy="27.529" r="0.337"/>
		<circle fill="#F899D2" cx="29.042" cy="27.529" r="0.337"/>
		<circle fill="#F899D2" cx="30.39" cy="27.529" r="0.337"/>
	</g>
	<g>
		<rect x="26.889" y="21.369" fill="#F899D2" width="0.605" height="7.944"/>
		<rect x="25.848" y="23.551" fill="#F899D2" width="2.685" height="3.581"/>
	</g>
	<g>
		<rect x="35.549" y="25.341" fill="#F899D2" width="0.604" height="9.293"/>
		<rect x="34.508" y="27.522" fill="#F899D2" width="2.688" height="4.93"/>
	</g>
	<g>
		<rect x="31.219" y="27.255" fill="#F899D2" width="0.605" height="9.734"/>
		<rect x="30.18" y="29.437" fill="#F899D2" width="2.684" height="5.371"/>
	</g>
	<g>
		<circle fill="#F899D2" cx="19.611" cy="27.522" r="0.337"/>
		<circle fill="#F899D2" cx="20.958" cy="27.522" r="0.337"/>
		<circle fill="#F899D2" cx="22.305" cy="27.522" r="0.337"/>
		<circle fill="#F899D2" cx="23.652" cy="27.522" r="0.336"/>
		<circle fill="#F899D2" cx="24.999" cy="27.522" r="0.336"/>
		<circle fill="#F899D2" cx="26.347" cy="27.522" r="0.337"/>
		<circle fill="#F899D2" cx="27.694" cy="27.522" r="0.337"/>
		<circle fill="#F899D2" cx="29.042" cy="27.522" r="0.337"/>
		<circle fill="#F899D2" cx="30.39" cy="27.522" r="0.337"/>
		<circle fill="#F899D2" cx="31.737" cy="27.522" r="0.337"/>
		<path fill="#F899D2" d="M33.422,27.522c0,0.188-0.152,0.338-0.34,0.338c-0.184,0-0.334-0.15-0.334-0.338
			c0-0.186,0.15-0.336,0.334-0.336C33.27,27.187,33.422,27.337,33.422,27.522z"/>
		<circle fill="#F899D2" cx="34.431" cy="27.522" r="0.337"/>
		<circle fill="#F899D2" cx="35.778" cy="27.522" r="0.337"/>
		<circle fill="#F899D2" cx="37.125" cy="27.522" r="0.338"/>
		<circle fill="#F899D2" cx="38.474" cy="27.522" r="0.337"/>
	</g>
</g>
</svg>
